<svg width="68" height="27" viewBox="0 0 68 27" fill="none" xmlns="http://www.w3.org/2000/svg">
<path d="M0 0.0703125C0.75 0.257813 1.46484 0.398438 2.14453 0.492188C2.82422 0.585937 3.42188 0.65625 3.9375 0.703125C4.54688 0.773438 5.10938 0.796875 5.625 0.773438C6.28125 0.773438 7.10156 0.714844 8.08594 0.597656C9.09375 0.480469 10.125 0.375 11.1797 0.28125C12.2344 0.164062 13.2422 0.09375 14.2031 0.0703125C15.1875 0.0234375 15.9844 0.0820313 16.5938 0.246094C17.2031 0.386719 17.8242 0.609375 18.457 0.914062C19.1133 1.19531 19.7109 1.55859 20.25 2.00391C20.7891 2.42578 21.2344 2.92969 21.5859 3.51562C21.9375 4.07812 22.1367 4.72266 22.1836 5.44922C22.1602 6.36328 21.9492 7.21875 21.5508 8.01562C21.2227 8.69531 20.6719 9.39844 19.8984 10.125C19.125 10.8281 18.0117 11.3672 16.5586 11.7422C17.2852 11.8359 17.9062 12 18.4219 12.2344C18.9609 12.4453 19.418 12.7031 19.793 13.0078C20.1914 13.2891 20.5078 13.6055 20.7422 13.957C21 14.3086 21.1992 14.6602 21.3398 15.0117C21.6914 15.832 21.8555 16.7461 21.832 17.7539C21.6914 19.0664 21.4219 20.1094 21.0234 20.8828C20.6484 21.6562 20.2148 22.2539 19.7227 22.6758C19.2305 23.0977 18.7266 23.3906 18.2109 23.5547C17.6953 23.7188 17.2266 23.8477 16.8047 23.9414C16.3828 24.0352 15.8672 24.082 15.2578 24.082C14.6484 24.082 13.9922 24.0703 13.2891 24.0469C12.6094 24 11.9062 23.9648 11.1797 23.9414C10.4531 23.8945 9.76172 23.8945 9.10547 23.9414C8.56641 23.9883 7.91016 24.0352 7.13672 24.082C6.48047 24.1289 5.66016 24.1875 4.67578 24.2578C3.69141 24.3047 2.54297 24.3633 1.23047 24.4336C1.48828 24.2461 1.69922 24.0352 1.86328 23.8008C2.05078 23.543 2.20312 23.3203 2.32031 23.1328C2.4375 22.8984 2.54297 22.6758 2.63672 22.4648C2.70703 22.2773 2.76562 21.7617 2.8125 20.918C2.85938 20.0742 2.89453 19.0664 2.91797 17.8945C2.94141 16.6992 2.95312 15.4219 2.95312 14.0625C2.97656 12.6797 2.96484 11.3555 2.91797 10.0898C2.89453 8.80078 2.84766 7.66406 2.77734 6.67969C2.73047 5.67188 2.66016 4.94531 2.56641 4.5C2.42578 4.00781 2.23828 3.50391 2.00391 2.98828C1.81641 2.54297 1.54688 2.0625 1.19531 1.54688C0.867188 1.03125 0.46875 0.539063 0 0.0703125ZM7.41797 3.65625C7.41797 3.75 7.42969 4.06641 7.45312 4.60547C7.47656 5.07422 7.5 5.80078 7.52344 6.78516C7.57031 7.74609 7.62891 9.11719 7.69922 10.8984C8.28516 11.1562 8.85938 11.2969 9.42188 11.3203C9.98438 11.3203 10.4883 11.2969 10.9336 11.25C11.4492 11.1797 11.9414 11.0625 12.4102 10.8984C13.043 10.6406 13.5352 10.2188 13.8867 9.63281C14.2617 9.04688 14.5078 8.4375 14.625 7.80469C14.7656 7.14844 14.8008 6.53906 14.7305 5.97656C14.6602 5.39063 14.5078 4.96875 14.2734 4.71094C13.8281 4.3125 13.2773 3.98438 12.6211 3.72656C12.0586 3.51562 11.3438 3.375 10.4766 3.30469C9.63281 3.21094 8.61328 3.32812 7.41797 3.65625ZM7.24219 20.3203C8.10938 20.7656 8.87109 21.0586 9.52734 21.1992C10.1836 21.3398 10.7344 21.4102 11.1797 21.4102C11.6953 21.4102 12.1406 21.3398 12.5156 21.1992C12.9609 20.9883 13.3945 20.707 13.8164 20.3555C14.2617 19.9805 14.5898 19.5469 14.8008 19.0547C15.0352 18.5391 15.1289 17.9766 15.082 17.3672C15.0352 16.7344 14.7656 16.043 14.2734 15.293C13.8281 14.7539 13.2891 14.332 12.6562 14.0273C12.0938 13.7695 11.3789 13.6055 10.5117 13.5352C9.66797 13.4648 8.625 13.6641 7.38281 14.1328L7.24219 20.3203ZM26.4375 10.9688C26.5547 10.8281 26.625 10.5703 26.6484 10.1953C26.6953 9.79688 26.7891 9.35156 26.9297 8.85938C27.0938 8.36719 27.3633 7.85156 27.7383 7.3125C28.1133 6.77344 28.7227 6.26953 29.5664 5.80078C30.3867 5.33203 31.1836 5.05078 31.957 4.95703C32.7305 4.86328 33.4688 4.89844 34.1719 5.0625C34.875 5.22656 35.5312 5.48438 36.1406 5.83594C36.7734 6.1875 37.3477 6.57422 37.8633 6.99609C38.2148 7.27734 38.4961 7.6875 38.707 8.22656C38.918 8.74219 39.082 9.32812 39.1992 9.98438C39.3164 10.6406 39.3984 11.332 39.4453 12.0586C39.5156 12.7617 39.5625 13.4531 39.5859 14.1328C39.6094 14.7891 39.6211 15.3984 39.6211 15.9609C39.6445 16.5 39.6914 16.9453 39.7617 17.2969C39.8555 17.8125 40.0195 18.2578 40.2539 18.6328C40.4883 18.9844 40.7461 19.2891 41.0273 19.5469C41.3086 19.7812 41.5898 19.9688 41.8711 20.1094C42.1523 20.25 42.3984 20.3555 42.6094 20.4258C42.75 20.4961 42.8789 20.543 42.9961 20.5664C43.2305 20.6602 43.3945 20.6602 43.4883 20.5664C43.3477 20.8945 43.2188 21.1758 43.1016 21.4102C42.9844 21.6445 42.8906 21.8438 42.8203 22.0078C42.7266 22.1953 42.6445 22.3477 42.5742 22.4648C42.5039 22.6055 42.4219 22.7344 42.3281 22.8516C42.2578 22.9688 42.1641 23.0977 42.0469 23.2383C41.9297 23.3789 41.8125 23.5312 41.6953 23.6953C41.3906 23.5781 41.0977 23.4375 40.8164 23.2734C40.5586 23.1094 40.3242 22.957 40.1133 22.8164C39.8555 22.6523 39.6211 22.4883 39.4102 22.3242C39.1992 22.1602 39 21.9727 38.8125 21.7617C38.6484 21.5742 38.4727 21.375 38.2852 21.1641C38.1211 20.9531 37.9805 20.7188 37.8633 20.4609C37.7227 20.7656 37.3828 21.1992 36.8438 21.7617C36.3281 22.3242 35.6484 22.8398 34.8047 23.3086C33.9609 23.7539 32.9766 24.0703 31.8516 24.2578C30.75 24.4453 29.5312 24.3164 28.1953 23.8711C27.6094 23.6836 27.0586 23.4141 26.543 23.0625C26.0273 22.6875 25.582 22.2422 25.207 21.7266C24.8555 21.2109 24.5977 20.625 24.4336 19.9688C24.293 19.2891 24.3047 18.5391 24.4688 17.7188C24.6328 16.8984 24.9258 16.207 25.3477 15.6445C25.7695 15.082 26.2734 14.625 26.8594 14.2734C27.4453 13.9219 28.1016 13.6523 28.8281 13.4648C29.5547 13.2773 30.3047 13.1484 31.0781 13.0781C31.6875 13.0547 32.2969 13.0898 32.9062 13.1836C33.4219 13.2773 33.9609 13.4531 34.5234 13.7109C35.0859 13.9453 35.5664 14.3086 35.9648 14.8008C35.9414 13.5586 35.8945 12.5742 35.8242 11.8477C35.7773 11.0977 35.7305 10.5234 35.6836 10.125C35.5898 9.65625 35.5078 9.32812 35.4375 9.14062C35.3203 8.97656 35.1914 8.78906 35.0508 8.57812C34.9336 8.36719 34.7812 8.17969 34.5938 8.01562C34.4062 7.82813 34.1719 7.67578 33.8906 7.55859C33.6094 7.44141 33.2812 7.39453 32.9062 7.41797C32.5078 7.44141 32.1914 7.54688 31.957 7.73438C31.7227 7.92187 31.5352 8.14453 31.3945 8.40234C31.2773 8.63672 31.207 8.89453 31.1836 9.17578C31.1602 9.45703 31.1719 9.70312 31.2188 9.91406C31.2656 10.0547 31.3359 10.207 31.4297 10.3711C31.5234 10.5117 31.6523 10.6641 31.8164 10.8281C31.9805 10.9922 32.2031 11.1328 32.4844 11.25C31.9453 11.3203 31.4648 11.3789 31.043 11.4258C30.6211 11.4492 30.2578 11.4844 29.9531 11.5312C29.6016 11.5781 29.2969 11.6133 29.0391 11.6367C28.7812 11.6602 28.4766 11.707 28.125 11.7773C27.8203 11.8242 27.4453 11.8828 27 11.9531C26.5547 12.0234 26.0391 12.1172 25.4531 12.2344C25.5938 12.0703 25.7227 11.918 25.8398 11.7773C25.957 11.6133 26.0625 11.4727 26.1562 11.3555C26.25 11.2148 26.3438 11.0859 26.4375 10.9688ZM31.7109 15.1523C31.2891 15.1758 30.8672 15.2812 30.4453 15.4688C30.0234 15.6328 29.6484 15.8789 29.3203 16.207C28.9922 16.5117 28.7109 16.875 28.4766 17.2969C28.2656 17.6953 28.1602 18.1406 28.1602 18.6328C28.1602 19.125 28.2773 19.5586 28.5117 19.9336C28.7695 20.2852 29.0977 20.5781 29.4961 20.8125C29.918 21.0469 30.3633 21.1875 30.832 21.2344C31.3242 21.2812 31.8047 21.2344 32.2734 21.0938C32.7188 20.9297 33.1406 20.6719 33.5391 20.3203C33.9375 19.9453 34.2773 19.5469 34.5586 19.125C34.8398 18.6797 35.0391 18.2461 35.1562 17.8242C35.2734 17.3789 35.2852 17.0156 35.1914 16.7344C35.0039 16.125 34.582 15.7031 33.9258 15.4688C33.2695 15.2109 32.5312 15.1055 31.7109 15.1523ZM43.1367 9.49219L49.6055 9.5625C49.2305 10.9922 48.9492 12.2109 48.7617 13.2188C48.5977 14.2266 48.4922 15.0703 48.4453 15.75C48.3516 16.5234 48.3281 17.1797 48.375 17.7188C48.4453 18.2109 48.5625 18.7383 48.7266 19.3008C48.8672 19.7695 49.0781 20.3086 49.3594 20.918C49.6406 21.5273 50.0156 22.1367 50.4844 22.7461C50.2031 22.6523 49.8984 22.582 49.5703 22.5352C49.2422 22.4883 48.9375 22.4531 48.6562 22.4297C48.3281 22.4062 48 22.4062 47.6719 22.4297C47.3438 22.4531 46.9805 22.4883 46.582 22.5352C46.2539 22.582 45.8555 22.6406 45.3867 22.7109C44.918 22.7812 44.4258 22.875 43.9102 22.9922C44.2617 21.9375 44.5312 21.0234 44.7188 20.25C44.9297 19.4766 45.082 18.832 45.1758 18.3164C45.2695 17.707 45.3281 17.2148 45.3516 16.8398C45.3516 16.3711 45.3516 15.8438 45.3516 15.2578C45.3516 14.6484 45.3516 14.0625 45.3516 13.5C45.3516 12.9375 45.3398 12.4453 45.3164 12.0234C45.293 11.5781 45.2461 11.2969 45.1758 11.1797L44.8242 10.8281C44.6836 10.7109 44.4727 10.5469 44.1914 10.3359C43.9336 10.1016 43.582 9.82031 43.1367 9.49219ZM45.6328 4.07812C46.125 3.82031 46.6172 3.75 47.1094 3.86719C47.625 3.98438 48.0234 4.20703 48.3047 4.53516C48.5859 4.86328 48.6797 5.25 48.5859 5.69531C48.5156 6.14062 48.1406 6.57422 47.4609 6.99609C46.7812 7.39453 46.1836 7.53516 45.668 7.41797C45.1523 7.30078 44.7891 7.05469 44.5781 6.67969C44.3672 6.30469 44.332 5.87109 44.4727 5.37891C44.6133 4.86328 45 4.42969 45.6328 4.07812ZM51.3984 8.36719C51.8438 8.39062 52.2422 8.40234 52.5938 8.40234C52.9688 8.37891 53.2852 8.35547 53.543 8.33203C53.8477 8.30859 54.1172 8.28516 54.3516 8.26172C54.7031 8.21484 55.0664 8.15625 55.4414 8.08594C55.7695 8.03906 56.1094 7.98047 56.4609 7.91016C56.8359 7.81641 57.1992 7.71094 57.5508 7.59375C57.4102 7.94531 57.293 8.25 57.1992 8.50781C57.1055 8.76562 57.0352 8.98828 56.9883 9.17578C56.918 9.38672 56.8828 9.5625 56.8828 9.70312C56.8594 9.86719 56.8477 10.0664 56.8477 10.3008C56.8242 10.6992 56.8242 11.3438 56.8477 12.2344C58.0664 11.1797 59.0859 10.3594 59.9062 9.77344C60.75 9.1875 61.418 8.73047 61.9102 8.40234C62.4961 8.02734 62.9531 7.78125 63.2812 7.66406C64.1484 7.52344 64.9102 7.72266 65.5664 8.26172C65.8477 8.49609 66.1172 8.8125 66.375 9.21094C66.6328 9.58594 66.8555 10.0898 67.043 10.7227C67.2305 11.3555 67.3711 12.1172 67.4648 13.0078C67.5586 13.875 67.5703 14.918 67.5 16.1367C67.0078 16.1836 66.5625 16.2305 66.1641 16.2773C65.7891 16.3242 65.4727 16.3594 65.2148 16.3828C64.9102 16.4297 64.6289 16.4531 64.3711 16.4531L63.4219 16.5586C63.0938 16.6055 62.6836 16.6523 62.1914 16.6992C61.7227 16.7227 61.1484 16.7695 60.4688 16.8398C61.4531 16.043 62.0859 15.3516 62.3672 14.7656C62.6719 14.1562 62.8008 13.6523 62.7539 13.2539C62.707 12.8086 62.4961 12.4219 62.1211 12.0938C61.6758 11.8359 61.1953 11.7422 60.6797 11.8125C60.2344 11.8594 59.7188 12.0586 59.1328 12.4102C58.5469 12.7617 57.9258 13.418 57.2695 14.3789C57.3164 15.8789 57.3633 17.1211 57.4102 18.1055C57.4805 19.0898 57.5391 19.8867 57.5859 20.4961C57.6562 21.1992 57.7148 21.75 57.7617 22.1484C57.832 22.5 57.9727 22.875 58.1836 23.2734C58.3477 23.6016 58.582 23.9648 58.8867 24.3633C59.1914 24.7617 59.5898 25.1602 60.082 25.5586C59.0508 25.5117 58.207 25.5117 57.5508 25.5586C57.1523 25.582 56.8008 25.6055 56.4961 25.6289C56.168 25.6758 55.8164 25.7227 55.4414 25.7695C55.1133 25.8164 54.7266 25.8633 54.2812 25.9102C53.8594 25.9805 53.3906 26.0508 52.875 26.1211C53.0625 25.8633 53.2148 25.5586 53.332 25.207C53.4492 24.8789 53.543 24.5625 53.6133 24.2578C53.707 23.9062 53.7773 23.543 53.8242 23.168C53.8477 22.8398 53.8594 22.3477 53.8594 21.6914C53.8828 21.0352 53.8711 20.2969 53.8242 19.4766C53.8008 18.6328 53.7656 17.7656 53.7188 16.875C53.6719 15.9609 53.6133 15.1055 53.543 14.3086C53.4727 13.5117 53.3906 12.8203 53.2969 12.2344C53.2266 11.625 53.1445 11.2031 53.0508 10.9688C52.9336 10.6875 52.793 10.4062 52.6289 10.125C52.4883 9.86719 52.3125 9.59766 52.1016 9.31641C51.8906 9.01172 51.6562 8.69531 51.3984 8.36719Z" fill="black"/>
</svg>
