<svg width="23" height="25" viewBox="0 0 23 25" fill="none" xmlns="http://www.w3.org/2000/svg">
<path d="M0 0.0703125C0.75 0.257813 1.46484 0.398438 2.14453 0.492188C2.82422 0.585937 3.42188 0.65625 3.9375 0.703125C4.54688 0.773438 5.10938 0.796875 5.625 0.773438C6.28125 0.773438 7.10156 0.714844 8.08594 0.597656C9.09375 0.480469 10.125 0.375 11.1797 0.28125C12.2344 0.164062 13.2422 0.09375 14.2031 0.0703125C15.1875 0.0234375 15.9844 0.0820313 16.5938 0.246094C17.2031 0.386719 17.8242 0.609375 18.457 0.914062C19.1133 1.19531 19.7109 1.55859 20.25 2.00391C20.7891 2.42578 21.2344 2.92969 21.5859 3.51562C21.9375 4.07812 22.1367 4.72266 22.1836 5.44922C22.1602 6.36328 21.9492 7.21875 21.5508 8.01562C21.2227 8.69531 20.6719 9.39844 19.8984 10.125C19.125 10.8281 18.0117 11.3672 16.5586 11.7422C17.2852 11.8359 17.9062 12 18.4219 12.2344C18.9609 12.4453 19.418 12.7031 19.793 13.0078C20.1914 13.2891 20.5078 13.6055 20.7422 13.957C21 14.3086 21.1992 14.6602 21.3398 15.0117C21.6914 15.832 21.8555 16.7461 21.832 17.7539C21.6914 19.0664 21.4219 20.1094 21.0234 20.8828C20.6484 21.6562 20.2148 22.2539 19.7227 22.6758C19.2305 23.0977 18.7266 23.3906 18.2109 23.5547C17.6953 23.7188 17.2266 23.8477 16.8047 23.9414C16.3828 24.0352 15.8672 24.082 15.2578 24.082C14.6484 24.082 13.9922 24.0703 13.2891 24.0469C12.6094 24 11.9062 23.9648 11.1797 23.9414C10.4531 23.8945 9.76172 23.8945 9.10547 23.9414C8.56641 23.9883 7.91016 24.0352 7.13672 24.082C6.48047 24.1289 5.66016 24.1875 4.67578 24.2578C3.69141 24.3047 2.54297 24.3633 1.23047 24.4336C1.48828 24.2461 1.69922 24.0352 1.86328 23.8008C2.05078 23.543 2.20312 23.3203 2.32031 23.1328C2.4375 22.8984 2.54297 22.6758 2.63672 22.4648C2.70703 22.2773 2.76562 21.7617 2.8125 20.918C2.85938 20.0742 2.89453 19.0664 2.91797 17.8945C2.94141 16.6992 2.95312 15.4219 2.95312 14.0625C2.97656 12.6797 2.96484 11.3555 2.91797 10.0898C2.89453 8.80078 2.84766 7.66406 2.77734 6.67969C2.73047 5.67188 2.66016 4.94531 2.56641 4.5C2.42578 4.00781 2.23828 3.50391 2.00391 2.98828C1.81641 2.54297 1.54688 2.0625 1.19531 1.54688C0.867188 1.03125 0.46875 0.539063 0 0.0703125ZM7.41797 3.65625C7.41797 3.75 7.42969 4.06641 7.45312 4.60547C7.47656 5.07422 7.5 5.80078 7.52344 6.78516C7.57031 7.74609 7.62891 9.11719 7.69922 10.8984C8.28516 11.1562 8.85938 11.2969 9.42188 11.3203C9.98438 11.3203 10.4883 11.2969 10.9336 11.25C11.4492 11.1797 11.9414 11.0625 12.4102 10.8984C13.043 10.6406 13.5352 10.2188 13.8867 9.63281C14.2617 9.04688 14.5078 8.4375 14.625 7.80469C14.7656 7.14844 14.8008 6.53906 14.7305 5.97656C14.6602 5.39062 14.5078 4.96875 14.2734 4.71094C13.8281 4.3125 13.2773 3.98438 12.6211 3.72656C12.0586 3.51562 11.3438 3.375 10.4766 3.30469C9.63281 3.21094 8.61328 3.32812 7.41797 3.65625ZM7.24219 20.3203C8.10938 20.7656 8.87109 21.0586 9.52734 21.1992C10.1836 21.3398 10.7344 21.4102 11.1797 21.4102C11.6953 21.4102 12.1406 21.3398 12.5156 21.1992C12.9609 20.9883 13.3945 20.707 13.8164 20.3555C14.2617 19.9805 14.5898 19.5469 14.8008 19.0547C15.0352 18.5391 15.1289 17.9766 15.082 17.3672C15.0352 16.7344 14.7656 16.043 14.2734 15.293C13.8281 14.7539 13.2891 14.332 12.6562 14.0273C12.0938 13.7695 11.3789 13.6055 10.5117 13.5352C9.66797 13.4648 8.625 13.6641 7.38281 14.1328L7.24219 20.3203Z" fill="black"/>
</svg>
